<svg xmlns="http://www.w3.org/2000/svg" xmlns:xlink="http://www.w3.org/1999/xlink" width="1024" height="1024" viewBox="0 0 1024 1024" fill="none"><g opacity="1"  transform="translate(0 0)  rotate(0)"><path id="矩形" fill-rule="evenodd" fill="url(#linear_0)" opacity="1" d="M0 1024L1024 1024L1024 0L0 0L0 1024Z"></path><path id="形状结合" fill-rule="evenodd" style="fill:#FFFFFF" opacity="1" d="M274 733L274 232L403 232L403 733L402.73 733L274 891.84L274 733Z"></path><path id="路径" fill-rule="evenodd" style="fill:#FFFFFF" opacity="1" d="M274 231.8L274 385.2L692.73 385.2L817.03 231.8L274 231.8Z"></path><path id="路径" fill-rule="evenodd" style="fill:#FFFFFF" opacity="0.4" d="M559.47 614L618.17 614L748.88 449L688.52 449L559.47 614Z"></path><path id="路径" fill-rule="evenodd" style="fill:#FFFFFF" opacity="1" d="M362.62 449L293.61 614L505.49 614L635.07 449L362.62 449Z"></path></g><defs><linearGradient id="linear_0" x1="50%" y1="100%" x2="51%" y2="0%" gradientUnits="objectBoundingBox"><stop offset="0" stop-color="#458CFD" stop-opacity="1" /><stop offset="1" stop-color="#1C5AF9" stop-opacity="1" /></linearGradient></defs></svg>